<svg xmlns="http://www.w3.org/2000/svg" viewBox="0 0 32 32" width="32" height="32"><rect width="32" height="32" rx="6" fill="#F59E0B"/><g transform="translate(5.5 5.5) scale(0.00899)" fill="#ffffff" fill-rule="evenodd"><path d="M 319 97 C 309 101, 310 112, 320 124 C 323 127, 326 132, 328 136 C 330 140, 334 145, 340 151 C 346 158, 350 163, 352 167 C 354 171, 357 177, 360 180 C 363 183, 367 189, 368 193 C 373 203, 454 283, 464 288 C 469 290, 474 294, 481 300 C 487 306, 492 310, 496 312 C 499 313, 504 316, 507 319 C 511 323, 519 327, 528 332 C 537 336, 545 341, 548 344 C 556 350, 604 375, 612 376 C 620 377, 637 386, 644 392 C 647 395, 652 398, 656 400 C 659 401, 664 405, 668 408 C 671 411, 677 414, 680 416 C 685 418, 690 422, 697 429 C 703 434, 709 439, 713 441 C 725 447, 743 467, 743 474 C 743 480, 738 479, 728 468 C 718 457, 712 456, 713 465 C 714 467, 716 471, 724 479 C 732 487, 734 490, 736 494 C 737 498, 739 502, 740 504 C 742 506, 743 509, 744 511 C 745 513, 747 517, 748 520 C 750 523, 752 528, 752 532 C 753 536, 754 540, 756 544 C 759 549, 759 551, 760 560 C 761 569, 761 570, 764 576 C 767 581, 767 582, 768 596 C 769 609, 769 610, 772 616 L 776 623 776 712 L 777 802 780 808 C 784 815, 784 815, 784 848 C 785 882, 785 882, 788 888 C 791 893, 791 895, 792 904 C 793 913, 793 914, 796 920 C 799 925, 799 927, 800 936 C 801 944, 801 946, 804 951 C 806 955, 807 959, 808 964 C 809 968, 810 972, 812 975 C 814 979, 815 984, 816 987 C 817 997, 849 1060, 856 1068 C 859 1071, 862 1076, 864 1080 C 866 1083, 869 1089, 872 1092 C 875 1095, 878 1100, 880 1104 C 882 1109, 886 1113, 896 1123 C 905 1133, 910 1139, 912 1143 C 915 1149, 916 1150, 922 1152 C 926 1155, 934 1162, 961 1188 C 990 1217, 994 1221, 1000 1224 C 1005 1226, 1010 1230, 1017 1236 C 1023 1242, 1028 1246, 1032 1248 C 1035 1249, 1040 1252, 1043 1255 C 1047 1259, 1055 1263, 1064 1268 C 1073 1272, 1081 1277, 1084 1280 C 1087 1283, 1095 1287, 1104 1292 C 1113 1296, 1121 1301, 1124 1304 C 1127 1307, 1135 1311, 1144 1316 C 1153 1320, 1161 1325, 1164 1328 C 1168 1331, 1176 1336, 1192 1344 C 1207 1352, 1216 1357, 1220 1360 C 1224 1364, 1238 1371, 1280 1392 C 1322 1413, 1336 1420, 1340 1424 C 1344 1427, 1354 1433, 1376 1444 C 1399 1455, 1408 1460, 1412 1464 C 1415 1467, 1421 1470, 1424 1472 C 1428 1474, 1433 1477, 1436 1480 C 1439 1483, 1445 1486, 1448 1488 C 1452 1490, 1457 1493, 1460 1496 C 1463 1499, 1469 1502, 1473 1504 C 1477 1506, 1482 1510, 1488 1516 C 1495 1522, 1500 1526, 1504 1528 C 1508 1530, 1513 1533, 1516 1536 C 1519 1539, 1525 1542, 1528 1544 C 1533 1546, 1537 1549, 1544 1556 C 1551 1563, 1555 1566, 1560 1568 C 1573 1573, 1637 1638, 1640 1648 C 1641 1651, 1644 1655, 1648 1660 C 1652 1664, 1655 1668, 1656 1672 C 1658 1676, 1660 1680, 1665 1684 C 1668 1688, 1671 1693, 1672 1695 C 1673 1697, 1674 1701, 1676 1703 C 1677 1705, 1679 1709, 1680 1711 C 1683 1719, 1691 1732, 1694 1733 C 1699 1734, 1700 1731, 1698 1724 C 1697 1722, 1696 1718, 1696 1716 C 1696 1713, 1694 1708, 1689 1697 C 1685 1689, 1680 1680, 1679 1678 C 1678 1676, 1675 1671, 1671 1667 C 1667 1662, 1665 1659, 1663 1655 C 1662 1650, 1660 1648, 1644 1632 C 1627 1615, 1626 1614, 1624 1607 C 1620 1597, 1603 1581, 1592 1576 C 1585 1573, 1583 1571, 1564 1552 C 1546 1534, 1544 1531, 1537 1528 C 1532 1526, 1527 1522, 1520 1516 C 1514 1510, 1509 1506, 1504 1503 C 1499 1501, 1494 1497, 1488 1492 C 1482 1486, 1477 1482, 1472 1480 C 1468 1478, 1463 1474, 1460 1471 C 1457 1469, 1452 1465, 1448 1464 C 1439 1460, 1420 1441, 1420 1436 C 1420 1431, 1428 1434, 1436 1441 C 1439 1443, 1444 1447, 1448 1448 C 1453 1450, 1457 1453, 1464 1460 C 1470 1466, 1475 1470, 1480 1472 C 1485 1475, 1490 1479, 1496 1485 C 1502 1490, 1507 1494, 1512 1497 C 1517 1499, 1522 1503, 1528 1509 C 1534 1514, 1539 1518, 1544 1520 C 1551 1524, 1554 1527, 1572 1544 C 1589 1561, 1593 1565, 1600 1569 C 1614 1576, 1651 1613, 1656 1624 C 1658 1630, 1661 1633, 1667 1640 C 1676 1649, 1676 1649, 1700 1696 C 1713 1722, 1724 1745, 1725 1746 C 1726 1747, 1727 1752, 1728 1755 C 1729 1760, 1730 1764, 1732 1768 C 1734 1771, 1735 1775, 1736 1779 C 1736 1783, 1738 1788, 1740 1792 C 1744 1799, 1744 1799, 1744 1824 C 1745 1850, 1745 1850, 1748 1856 C 1753 1866, 1753 1926, 1748 1936 C 1745 1942, 1745 1943, 1744 1956 C 1744 1969, 1743 1970, 1740 1976 C 1737 1982, 1737 1984, 1736 1993 C 1735 2001, 1735 2003, 1732 2008 C 1730 2012, 1729 2016, 1728 2020 C 1727 2029, 1703 2076, 1696 2084 C 1693 2087, 1690 2093, 1688 2097 C 1685 2102, 1682 2106, 1672 2117 C 1662 2127, 1659 2131, 1656 2137 C 1651 2147, 1595 2203, 1585 2208 C 1580 2210, 1575 2214, 1568 2220 C 1562 2226, 1557 2230, 1553 2232 C 1549 2234, 1543 2237, 1540 2240 C 1536 2243, 1531 2247, 1528 2248 C 1524 2250, 1519 2253, 1516 2256 C 1508 2263, 1413 2311, 1404 2312 C 1400 2313, 1393 2315, 1384 2320 C 1370 2327, 1369 2327, 1360 2328 C 1352 2329, 1350 2329, 1344 2332 C 1338 2335, 1337 2335, 1324 2336 C 1312 2337, 1311 2337, 1303 2341 C 1298 2343, 1293 2345, 1292 2346 C 1282 2350, 1291 2351, 1324 2352 C 1354 2353, 1354 2353, 1359 2355 C 1366 2359, 1370 2359, 1377 2355 C 1386 2351, 1407 2351, 1416 2356 L 1423 2360 1516 2360 L 1610 2360 1616 2356 C 1623 2353, 1623 2353, 1664 2352 C 1706 2352, 1706 2352, 1712 2348 C 1718 2345, 1719 2345, 1732 2344 C 1745 2343, 1746 2343, 1752 2340 C 1757 2337, 1760 2337, 1768 2336 C 1776 2335, 1779 2335, 1784 2332 C 1789 2329, 1792 2329, 1800 2328 C 1808 2327, 1811 2327, 1816 2324 C 1819 2322, 1825 2320, 1828 2320 C 1832 2319, 1837 2318, 1840 2316 C 1844 2314, 1849 2312, 1852 2312 C 1861 2311, 1940 2271, 1949 2263 C 1952 2261, 1957 2257, 1960 2256 C 1963 2254, 1969 2251, 1972 2248 C 1976 2245, 1981 2241, 1984 2240 C 1988 2238, 1993 2234, 1999 2228 C 2006 2222, 2011 2218, 2016 2216 C 2026 2211, 2090 2147, 2096 2136 C 2098 2131, 2102 2126, 2108 2119 C 2114 2113, 2118 2108, 2120 2104 C 2122 2099, 2126 2094, 2132 2088 C 2140 2079, 2141 2077, 2148 2064 C 2153 2054, 2157 2047, 2160 2044 C 2167 2036, 2207 1957, 2208 1947 C 2209 1944, 2210 1939, 2212 1935 C 2214 1932, 2215 1928, 2216 1924 C 2217 1919, 2218 1915, 2220 1912 C 2222 1908, 2223 1904, 2224 1900 C 2225 1895, 2226 1891, 2228 1887 C 2231 1882, 2231 1880, 2232 1872 C 2233 1863, 2233 1861, 2236 1856 C 2240 1850, 2240 1850, 2240 1832 C 2241 1815, 2241 1815, 2244 1807 L 2248 1800 2248 1736 L 2248 1672 2244 1665 C 2241 1658, 2241 1658, 2240 1640 C 2240 1623, 2240 1623, 2236 1617 C 2233 1611, 2233 1609, 2232 1600 C 2231 1592, 2231 1590, 2228 1585 C 2226 1581, 2225 1577, 2224 1572 C 2223 1568, 2222 1564, 2220 1560 C 2218 1557, 2217 1553, 2216 1548 C 2215 1544, 2214 1540, 2212 1537 C 2210 1533, 2209 1528, 2208 1525 C 2207 1515, 2159 1420, 2152 1412 C 2149 1409, 2146 1404, 2144 1400 C 2142 1396, 2138 1391, 2132 1385 C 2126 1378, 2123 1373, 2120 1368 C 2115 1358, 2019 1262, 2008 1256 C 2002 1253, 1998 1250, 1987 1239 C 1977 1230, 1972 1226, 1968 1224 C 1965 1223, 1960 1219, 1956 1216 C 1953 1213, 1947 1210, 1944 1208 C 1941 1207, 1936 1203, 1933 1200 C 1929 1197, 1921 1193, 1912 1188 C 1903 1184, 1895 1179, 1892 1176 C 1885 1170, 1868 1161, 1860 1160 C 1855 1159, 1845 1155, 1816 1140 C 1787 1126, 1776 1121, 1772 1120 C 1769 1120, 1764 1118, 1760 1116 C 1757 1114, 1752 1113, 1748 1112 C 1745 1112, 1740 1110, 1736 1108 C 1733 1106, 1728 1105, 1724 1104 C 1721 1104, 1715 1102, 1712 1100 C 1707 1097, 1704 1097, 1696 1096 C 1688 1095, 1685 1095, 1680 1092 C 1675 1089, 1672 1089, 1664 1088 C 1656 1087, 1653 1087, 1648 1084 C 1642 1081, 1641 1081, 1628 1080 C 1615 1079, 1614 1079, 1608 1076 C 1602 1073, 1602 1073, 1572 1072 C 1543 1071, 1543 1071, 1536 1068 C 1530 1065, 1529 1065, 1518 1064 C 1499 1063, 1497 1061, 1506 1050 C 1509 1046, 1511 1042, 1512 1040 C 1514 1035, 1517 1031, 1525 1023 C 1530 1017, 1534 1012, 1536 1008 C 1538 1003, 1542 998, 1548 992 C 1555 985, 1558 981, 1560 975 C 1565 965, 1613 917, 1624 912 C 1629 909, 1633 906, 1648 892 C 1662 878, 1666 875, 1671 872 C 1675 870, 1681 867, 1684 864 C 1687 861, 1695 856, 1704 852 C 1713 847, 1721 843, 1724 840 C 1731 834, 1749 825, 1756 824 C 1760 823, 1768 820, 1784 812 C 1800 804, 1808 801, 1812 800 C 1816 799, 1821 798, 1824 796 C 1828 794, 1833 792, 1836 792 C 1840 791, 1845 790, 1848 788 C 1852 786, 1857 784, 1860 784 C 1864 783, 1869 782, 1872 780 C 1876 778, 1881 776, 1884 776 C 1888 775, 1893 774, 1896 772 C 1902 769, 1904 769, 1916 768 C 1929 767, 1930 767, 1936 764 C 1943 761, 1943 761, 1964 760 C 1986 759, 1986 759, 1992 756 L 1999 753 2104 753 L 2210 753 2216 756 C 2232 764, 2243 758, 2236 745 C 2234 741, 2233 736, 2232 732 C 2231 725, 2230 723, 2224 716 C 2221 713, 2218 708, 2216 704 C 2211 694, 2139 622, 2129 616 C 2125 615, 2119 611, 2116 608 C 2113 605, 2108 602, 2104 600 C 2101 599, 2096 595, 2093 593 C 2088 589, 2078 583, 2050 569 C 2030 559, 2013 550, 2012 549 C 2008 546, 2001 531, 2000 524 C 1999 520, 1998 516, 1996 512 C 1994 509, 1993 505, 1992 500 C 1991 496, 1990 492, 1988 489 C 1986 485, 1985 480, 1984 477 C 1983 467, 1935 372, 1928 364 C 1925 361, 1922 356, 1920 352 C 1918 348, 1914 343, 1908 337 C 1902 330, 1898 325, 1896 320 C 1890 309, 1834 253, 1824 248 C 1819 246, 1814 242, 1807 236 C 1801 230, 1796 226, 1792 224 C 1789 223, 1784 220, 1781 217 C 1772 209, 1693 169, 1684 168 C 1681 168, 1676 166, 1672 164 C 1669 162, 1664 161, 1660 160 C 1657 160, 1652 158, 1648 156 C 1645 154, 1640 153, 1636 152 C 1633 152, 1628 150, 1624 148 C 1621 146, 1616 145, 1612 144 C 1609 144, 1603 142, 1600 140 C 1594 137, 1593 137, 1580 136 C 1568 135, 1566 135, 1560 132 C 1557 130, 1552 129, 1548 128 C 1545 128, 1539 126, 1536 124 C 1530 121, 1529 121, 1512 120 C 1495 119, 1495 119, 1488 116 C 1482 113, 1482 113, 1460 112 C 1439 111, 1439 111, 1432 108 C 1426 105, 1426 105, 1380 104 C 1335 104, 1335 104, 1328 100 L 1322 97 822 96 C 437 96, 322 96, 319 97 M 1293 441 C 1287 445, 1291 447, 1304 448 C 1314 449, 1315 449, 1320 452 C 1325 455, 1326 455, 1335 456 C 1345 457, 1346 457, 1352 460 C 1357 463, 1361 464, 1363 464 C 1385 464, 1440 508, 1440 525 C 1440 528, 1441 531, 1441 532 C 1446 540, 1448 545, 1448 549 C 1448 551, 1449 554, 1449 556 C 1454 564, 1455 567, 1456 573 C 1456 577, 1458 581, 1459 583 C 1461 585, 1463 589, 1464 592 C 1465 594, 1466 598, 1468 600 C 1469 602, 1471 606, 1472 608 C 1474 616, 1487 628, 1496 632 C 1499 634, 1505 638, 1509 641 C 1516 647, 1517 647, 1525 648 C 1528 649, 1533 650, 1536 652 C 1541 655, 1543 655, 1552 656 C 1560 657, 1562 657, 1568 660 C 1579 666, 1613 666, 1624 660 C 1629 657, 1632 657, 1638 656 C 1651 656, 1652 655, 1659 649 C 1662 646, 1670 641, 1676 638 L 1687 633 1725 632 C 1772 631, 1769 633, 1759 613 C 1758 611, 1755 609, 1751 608 C 1746 605, 1741 601, 1724 584 C 1706 565, 1702 563, 1696 560 C 1691 558, 1687 555, 1680 548 C 1673 541, 1669 538, 1664 536 C 1661 534, 1655 531, 1652 528 C 1648 525, 1643 521, 1640 520 C 1636 518, 1631 515, 1628 512 C 1623 508, 1616 504, 1599 495 C 1586 489, 1575 483, 1574 483 C 1573 482, 1570 481, 1568 480 C 1566 479, 1561 477, 1559 475 C 1554 473, 1553 472, 1548 472 C 1540 472, 1537 475, 1542 479 C 1553 486, 1541 490, 1528 483 C 1522 480, 1520 480, 1511 479 C 1503 478, 1501 478, 1495 475 C 1488 471, 1487 471, 1479 471 C 1471 471, 1470 471, 1463 467 C 1457 464, 1456 464, 1448 463 C 1440 463, 1438 463, 1432 460 C 1428 457, 1424 456, 1420 456 C 1416 455, 1412 454, 1408 452 C 1403 449, 1403 449, 1385 448 C 1367 447, 1367 447, 1360 444 C 1353 440, 1298 438, 1293 441 M 122 609 C 122 610, 121 614, 121 618 C 120 623, 119 627, 116 633 L 112 640 112 748 L 112 856 116 863 C 120 871, 120 871, 120 904 C 121 938, 121 938, 124 944 C 128 951, 128 951, 128 968 C 129 986, 129 986, 132 992 C 135 998, 136 999, 136 1012 C 136 1025, 137 1026, 140 1032 C 143 1037, 143 1039, 144 1048 C 145 1056, 145 1058, 148 1063 C 150 1067, 151 1071, 152 1076 C 153 1080, 154 1084, 156 1087 C 158 1091, 159 1096, 160 1099 C 161 1104, 163 1110, 168 1120 C 173 1129, 175 1135, 176 1140 C 177 1148, 201 1196, 208 1204 C 211 1207, 215 1214, 220 1224 C 225 1234, 229 1240, 232 1244 C 235 1247, 238 1252, 240 1256 C 243 1261, 246 1265, 260 1279 C 274 1294, 277 1298, 280 1304 C 286 1315, 334 1363, 345 1368 C 350 1371, 354 1374, 369 1389 C 383 1402, 388 1406, 392 1408 C 395 1409, 400 1413, 404 1416 C 407 1419, 413 1422, 417 1424 C 421 1426, 426 1430, 432 1436 C 440 1444, 443 1445, 456 1452 C 465 1456, 473 1461, 476 1464 C 479 1467, 484 1470, 488 1472 C 491 1473, 496 1477, 499 1480 C 503 1483, 511 1487, 520 1492 C 529 1496, 537 1501, 540 1504 C 548 1511, 723 1599, 732 1600 C 735 1600, 740 1602, 744 1604 C 747 1606, 753 1607, 756 1608 C 761 1609, 769 1612, 792 1624 C 815 1635, 824 1639, 828 1640 C 832 1640, 838 1643, 848 1647 C 862 1654, 867 1655, 868 1652 C 869 1648, 862 1643, 828 1626 C 788 1606, 786 1605, 795 1599 C 798 1596, 807 1579, 808 1572 C 808 1569, 810 1565, 810 1563 C 814 1555, 813 1538, 808 1528 C 803 1518, 803 1516, 806 1508 C 810 1495, 808 1486, 800 1480 C 790 1473, 786 1463, 790 1452 C 793 1445, 793 1442, 790 1436 C 783 1418, 789 1416, 838 1416 L 874 1417 928 1444 C 994 1477, 998 1478, 996 1463 C 996 1458, 996 1458, 999 1458 C 1005 1458, 1036 1474, 1044 1480 C 1047 1483, 1052 1487, 1056 1488 C 1068 1495, 1072 1501, 1065 1504 C 1059 1506, 1059 1508, 1062 1513 C 1069 1520, 1076 1520, 1076 1512 C 1076 1503, 1093 1507, 1108 1520 C 1111 1523, 1116 1527, 1120 1529 C 1124 1530, 1129 1534, 1132 1537 C 1135 1539, 1140 1543, 1144 1545 C 1148 1546, 1153 1550, 1156 1553 C 1159 1555, 1164 1559, 1168 1560 C 1172 1562, 1177 1566, 1180 1569 C 1183 1572, 1188 1575, 1191 1575 C 1197 1578, 1201 1581, 1210 1590 C 1215 1595, 1220 1598, 1225 1600 C 1235 1605, 1331 1701, 1336 1711 C 1338 1715, 1341 1721, 1344 1724 C 1347 1728, 1351 1734, 1356 1744 C 1361 1753, 1365 1760, 1368 1764 C 1375 1772, 1391 1803, 1392 1812 C 1392 1816, 1394 1820, 1396 1824 C 1398 1827, 1399 1831, 1400 1836 C 1401 1840, 1402 1844, 1404 1848 C 1407 1854, 1407 1854, 1408 1872 C 1409 1890, 1409 1890, 1412 1896 L 1416 1902 1416 1959 L 1416 2016 1412 2023 C 1409 2030, 1409 2031, 1408 2044 C 1408 2057, 1407 2058, 1404 2064 C 1402 2068, 1400 2073, 1400 2076 C 1400 2079, 1398 2085, 1396 2088 C 1394 2092, 1392 2097, 1392 2100 C 1391 2105, 1388 2113, 1375 2138 C 1366 2156, 1359 2171, 1359 2171 C 1359 2172, 1356 2176, 1353 2180 C 1350 2184, 1346 2190, 1344 2193 C 1342 2197, 1338 2203, 1332 2210 C 1322 2220, 1320 2225, 1322 2228 C 1325 2231, 1346 2212, 1352 2199 C 1355 2193, 1357 2190, 1372 2176 L 1388 2160 1402 2133 C 1412 2112, 1415 2104, 1416 2100 C 1416 2096, 1418 2091, 1420 2088 C 1422 2084, 1424 2079, 1424 2076 C 1424 2073, 1426 2067, 1428 2063 C 1432 2056, 1432 2056, 1432 2040 C 1432 2024, 1432 2024, 1436 2016 L 1440 2008 1440 1932 L 1440 1856 1436 1849 C 1433 1843, 1433 1841, 1432 1832 C 1431 1824, 1431 1822, 1428 1817 C 1426 1813, 1425 1809, 1424 1804 C 1423 1800, 1422 1796, 1420 1793 C 1418 1789, 1417 1784, 1416 1781 C 1415 1771, 1391 1724, 1384 1716 C 1381 1713, 1378 1708, 1376 1704 C 1374 1701, 1371 1695, 1368 1692 C 1365 1689, 1361 1683, 1360 1680 C 1354 1669, 1266 1581, 1256 1576 C 1250 1573, 1246 1570, 1235 1560 C 1225 1550, 1220 1546, 1216 1544 C 1213 1543, 1208 1539, 1204 1536 C 1201 1533, 1195 1530, 1192 1528 C 1189 1527, 1184 1523, 1180 1520 C 1177 1517, 1171 1514, 1168 1512 C 1165 1511, 1160 1507, 1156 1504 C 1153 1501, 1147 1498, 1144 1496 C 1141 1495, 1136 1491, 1132 1488 C 1129 1485, 1123 1482, 1120 1480 C 1117 1479, 1112 1475, 1108 1472 C 1105 1469, 1099 1466, 1096 1464 C 1093 1463, 1088 1459, 1084 1456 C 1081 1453, 1075 1450, 1072 1448 C 1069 1447, 1064 1443, 1061 1441 C 1056 1437, 1048 1432, 1032 1424 C 1016 1416, 1008 1411, 1004 1408 C 1001 1405, 993 1401, 984 1396 C 975 1392, 967 1387, 964 1384 C 961 1381, 956 1378, 952 1376 C 949 1375, 944 1371, 941 1368 C 937 1365, 929 1361, 920 1356 C 911 1352, 903 1347, 900 1344 C 897 1341, 892 1338, 888 1336 C 885 1335, 880 1331, 876 1328 C 873 1325, 867 1322, 864 1320 C 861 1319, 856 1315, 853 1312 C 849 1309, 841 1305, 832 1300 C 823 1296, 815 1291, 812 1288 C 808 1285, 800 1280, 784 1272 C 768 1264, 760 1259, 756 1256 C 753 1253, 748 1250, 744 1248 C 741 1247, 736 1243, 732 1240 C 729 1237, 723 1234, 720 1232 C 717 1231, 712 1227, 708 1224 C 705 1221, 699 1218, 696 1216 C 693 1215, 688 1211, 684 1208 C 681 1205, 675 1202, 672 1200 C 669 1199, 664 1195, 660 1192 C 657 1189, 651 1186, 648 1184 C 645 1183, 640 1179, 636 1176 C 633 1173, 627 1170, 624 1168 C 621 1167, 616 1163, 612 1160 C 609 1157, 603 1154, 600 1152 C 597 1151, 592 1147, 588 1144 C 585 1141, 579 1138, 575 1136 C 571 1134, 566 1130, 560 1124 C 553 1118, 548 1114, 544 1112 C 539 1110, 534 1106, 528 1100 C 521 1094, 516 1090, 511 1088 C 506 1085, 502 1082, 491 1072 C 481 1062, 477 1058, 471 1056 C 466 1053, 462 1050, 451 1040 C 441 1030, 437 1027, 431 1024 C 421 1019, 277 875, 272 865 C 270 859, 267 855, 260 848 C 254 842, 250 837, 248 833 C 246 829, 243 823, 240 820 C 237 817, 234 812, 232 808 C 230 805, 227 799, 224 796 C 221 793, 218 788, 216 784 C 214 781, 211 775, 208 772 C 201 764, 169 701, 168 692 C 167 687, 163 678, 148 649 C 128 609, 125 604, 122 609 M 99 1278 C 95 1280, 96 1289, 101 1296 C 104 1301, 104 1301, 104 1331 C 105 1362, 105 1362, 108 1368 C 111 1373, 111 1375, 112 1384 C 113 1392, 113 1394, 116 1400 C 119 1406, 120 1407, 120 1420 C 120 1433, 121 1434, 124 1439 C 126 1443, 127 1447, 128 1452 C 129 1456, 130 1460, 132 1464 C 135 1469, 135 1471, 136 1480 C 137 1488, 137 1490, 140 1495 C 142 1499, 143 1503, 144 1507 C 145 1512, 147 1518, 152 1528 C 157 1537, 159 1543, 160 1548 C 162 1561, 210 1653, 220 1664 C 226 1670, 230 1675, 232 1679 C 234 1683, 237 1689, 240 1692 C 243 1695, 246 1700, 248 1704 C 250 1709, 254 1713, 264 1723 C 274 1734, 277 1738, 280 1744 C 285 1754, 302 1771, 312 1776 C 317 1778, 322 1782, 329 1788 C 335 1794, 340 1798, 344 1800 C 347 1801, 352 1805, 356 1808 C 359 1811, 365 1814, 368 1816 C 371 1817, 376 1821, 379 1823 C 388 1831, 467 1871, 476 1872 C 480 1873, 487 1875, 496 1880 C 505 1885, 512 1887, 516 1888 C 519 1888, 524 1890, 528 1892 C 531 1894, 536 1895, 540 1896 C 543 1896, 548 1898, 552 1900 C 555 1902, 560 1903, 564 1904 C 567 1904, 573 1906, 576 1908 C 581 1911, 584 1911, 592 1912 C 600 1913, 603 1913, 608 1916 C 613 1919, 616 1919, 624 1920 C 632 1921, 635 1921, 640 1924 C 643 1926, 648 1927, 652 1928 C 655 1928, 660 1930, 664 1932 C 667 1934, 672 1935, 676 1936 C 679 1936, 685 1938, 688 1940 C 693 1943, 696 1943, 704 1944 C 712 1945, 715 1945, 720 1948 C 726 1951, 728 1951, 736 1952 C 745 1953, 747 1953, 753 1956 C 759 1959, 760 1959, 773 1960 C 786 1961, 787 1961, 793 1964 C 798 1967, 800 1967, 808 1967 C 815 1968, 817 1968, 824 1971 C 833 1976, 840 1976, 840 1972 C 840 1968, 827 1961, 821 1961 C 819 1961, 814 1959, 809 1957 C 805 1955, 799 1953, 795 1952 C 792 1952, 787 1950, 783 1948 C 778 1945, 776 1945, 767 1944 C 755 1943, 753 1942, 740 1929 C 728 1915, 726 1911, 730 1900 C 733 1892, 733 1890, 727 1883 C 712 1864, 704 1837, 710 1820 C 712 1814, 712 1812, 712 1783 C 712 1745, 711 1747, 726 1743 C 734 1741, 733 1736, 723 1729 C 715 1724, 715 1722, 723 1721 C 729 1721, 733 1723, 751 1732 C 755 1733, 760 1735, 764 1736 C 767 1736, 772 1738, 776 1740 C 779 1742, 784 1743, 788 1744 C 791 1744, 796 1746, 800 1748 C 803 1750, 808 1751, 812 1752 C 816 1753, 822 1755, 832 1760 C 841 1765, 848 1767, 852 1768 C 855 1768, 860 1770, 864 1772 C 867 1774, 872 1775, 876 1776 C 879 1776, 884 1778, 888 1780 C 891 1782, 896 1783, 900 1784 C 904 1785, 910 1787, 920 1792 C 929 1797, 936 1799, 940 1800 C 943 1800, 948 1802, 952 1804 C 955 1806, 960 1807, 964 1808 C 967 1808, 972 1810, 976 1812 C 979 1814, 984 1815, 988 1816 C 992 1817, 1000 1820, 1016 1828 C 1032 1836, 1040 1839, 1044 1840 C 1051 1841, 1053 1842, 1060 1848 C 1064 1851, 1073 1856, 1088 1864 C 1104 1872, 1112 1877, 1116 1880 C 1119 1883, 1124 1886, 1128 1888 C 1131 1889, 1136 1893, 1140 1896 C 1143 1899, 1149 1902, 1152 1904 C 1156 1906, 1161 1909, 1164 1912 C 1167 1915, 1173 1919, 1177 1920 C 1184 1923, 1187 1925, 1195 1934 C 1208 1947, 1214 1950, 1214 1943 C 1214 1937, 1148 1870, 1137 1864 C 1133 1863, 1127 1859, 1124 1856 C 1121 1853, 1116 1850, 1112 1848 C 1109 1847, 1104 1843, 1101 1841 C 1092 1833, 949 1761, 940 1760 C 936 1759, 929 1757, 920 1752 C 911 1747, 904 1745, 900 1744 C 896 1743, 888 1740, 872 1732 C 856 1724, 848 1721, 844 1720 C 841 1720, 836 1718, 832 1716 C 829 1714, 824 1713, 820 1712 C 817 1712, 812 1710, 808 1708 C 805 1706, 800 1705, 796 1704 C 792 1703, 786 1701, 776 1696 C 767 1691, 760 1689, 756 1688 C 753 1688, 748 1686, 744 1684 C 741 1682, 736 1681, 732 1680 C 728 1679, 720 1676, 704 1668 C 688 1660, 680 1657, 676 1656 C 672 1655, 664 1652, 648 1644 C 632 1636, 624 1633, 620 1632 C 611 1631, 404 1527, 396 1520 C 393 1517, 388 1514, 384 1512 C 381 1511, 376 1507, 372 1504 C 369 1501, 363 1498, 360 1496 C 357 1495, 352 1491, 348 1488 C 345 1485, 339 1482, 336 1480 C 333 1479, 328 1475, 324 1472 C 321 1469, 315 1466, 311 1464 C 307 1462, 302 1458, 296 1452 C 289 1446, 284 1442, 280 1440 C 275 1438, 270 1434, 264 1428 C 257 1422, 252 1418, 247 1416 C 242 1413, 238 1410, 227 1400 C 217 1390, 213 1387, 207 1384 C 196 1379, 115 1297, 111 1287 C 108 1279, 103 1275, 99 1278 M 1385 1411 C 1383 1416, 1386 1420, 1396 1425 C 1413 1435, 1418 1430, 1404 1416 C 1396 1409, 1386 1406, 1385 1411 M 291 1870 C 288 1873, 303 1906, 312 1916 C 315 1919, 318 1924, 320 1928 C 322 1931, 325 1937, 328 1940 C 331 1943, 334 1948, 336 1952 C 338 1955, 341 1961, 344 1964 C 347 1967, 350 1972, 352 1976 C 354 1980, 358 1985, 364 1991 C 370 1998, 373 2003, 376 2008 C 381 2018, 453 2090, 464 2096 C 470 2099, 474 2102, 485 2112 C 495 2122, 499 2126, 504 2128 C 509 2130, 514 2134, 521 2140 C 527 2146, 532 2150, 536 2152 C 539 2153, 544 2157, 548 2160 C 551 2163, 557 2166, 560 2168 C 563 2169, 568 2173, 571 2176 C 575 2179, 583 2183, 592 2188 C 601 2192, 609 2197, 612 2200 C 620 2207, 684 2239, 692 2240 C 696 2241, 703 2243, 712 2248 C 721 2253, 728 2255, 732 2256 C 735 2256, 740 2258, 744 2260 C 747 2262, 752 2263, 756 2264 C 759 2264, 765 2266, 768 2268 C 773 2271, 776 2271, 784 2272 C 792 2273, 795 2273, 800 2276 C 803 2278, 808 2279, 812 2280 C 815 2280, 821 2282, 824 2284 C 829 2287, 832 2287, 840 2288 C 848 2289, 851 2289, 856 2292 C 862 2295, 863 2295, 876 2296 C 889 2297, 890 2297, 896 2300 C 903 2303, 903 2303, 924 2304 C 946 2305, 946 2305, 952 2308 C 962 2313, 1031 2313, 1031 2308 C 1031 2307, 1030 2306, 1028 2306 C 1027 2305, 1022 2303, 1017 2301 C 1009 2297, 1009 2297, 992 2296 C 975 2296, 975 2296, 968 2292 C 962 2289, 961 2289, 948 2288 C 928 2287, 922 2283, 927 2272 C 929 2268, 928 2266, 921 2264 C 916 2262, 915 2261, 913 2256 C 907 2247, 897 2236, 888 2232 C 881 2229, 878 2227, 846 2194 L 811 2160 804 2145 C 795 2126, 794 2123, 800 2116 C 805 2110, 806 2095, 802 2085 C 801 2081, 801 2080, 802 2075 C 803 2069, 803 2069, 801 2065 C 797 2057, 799 2057, 824 2057 C 842 2057, 842 2057, 848 2060 C 855 2063, 855 2063, 880 2064 C 906 2065, 906 2065, 912 2068 C 919 2071, 919 2071, 936 2072 C 953 2073, 954 2073, 961 2076 C 968 2080, 968 2080, 988 2080 C 1009 2080, 1009 2080, 1015 2083 C 1022 2086, 1029 2088, 1035 2086 C 1040 2085, 1039 2083, 1034 2081 C 1032 2080, 1027 2078, 1023 2076 C 1017 2073, 1016 2073, 1009 2073 C 1002 2073, 1000 2073, 994 2069 C 991 2067, 984 2065, 981 2064 C 977 2064, 971 2062, 967 2060 C 962 2057, 959 2057, 952 2056 C 944 2055, 941 2055, 936 2052 C 930 2049, 929 2049, 916 2048 C 903 2048, 902 2047, 896 2044 C 890 2041, 890 2041, 872 2040 C 855 2039, 854 2039, 848 2036 C 842 2033, 841 2033, 828 2032 C 815 2031, 814 2031, 808 2028 C 803 2025, 800 2025, 792 2024 C 784 2023, 781 2023, 776 2020 C 771 2017, 768 2017, 760 2016 C 752 2015, 749 2015, 744 2012 C 739 2009, 736 2009, 728 2008 C 720 2007, 717 2007, 712 2004 C 707 2001, 704 2001, 696 2000 C 688 1999, 685 1999, 680 1996 C 675 1993, 672 1993, 664 1992 C 656 1991, 653 1991, 648 1988 C 645 1986, 640 1985, 636 1984 C 633 1984, 627 1982, 624 1980 C 619 1977, 616 1977, 608 1976 C 600 1975, 597 1975, 592 1972 C 587 1969, 584 1969, 576 1968 C 568 1967, 565 1967, 560 1964 C 557 1962, 552 1961, 548 1960 C 545 1960, 540 1958, 536 1956 C 533 1954, 528 1953, 524 1952 C 521 1952, 516 1950, 512 1948 C 509 1946, 504 1945, 500 1944 C 497 1944, 492 1942, 488 1940 C 485 1938, 480 1937, 476 1936 C 473 1936, 468 1934, 464 1932 C 461 1930, 456 1929, 452 1928 C 448 1927, 442 1925, 432 1920 C 423 1915, 416 1913, 412 1912 C 409 1912, 404 1910, 400 1908 C 397 1906, 392 1905, 388 1904 C 384 1903, 378 1901, 368 1896 C 359 1891, 352 1889, 348 1888 C 344 1887, 337 1885, 328 1880 C 318 1875, 312 1873, 307 1872 C 304 1871, 300 1871, 298 1870 C 295 1869, 293 1869, 291 1870"/></g></svg>